<?xml version="1.0" standalone="no"?>
<!DOCTYPE svg PUBLIC "-//W3C//DTD SVG 20010904//EN"
 "http://www.w3.org/TR/2001/REC-SVG-20010904/DTD/svg10.dtd">
<svg version="1.0" xmlns="http://www.w3.org/2000/svg"
 width="1080.000000pt" height="1080.000000pt" viewBox="0 0 1080.000000 1080.000000"
 preserveAspectRatio="xMidYMid meet">
<metadata>
Created by potrace 1.11, written by Peter Selinger 2001-2013
</metadata>
<g transform="translate(0.000000,1080.000000) scale(0.100000,-0.100000)"
fill="#000000" stroke="none">
<path d="M3432 10420 c-90 -24 -146 -48 -219 -96 -37 -25 -532 -512 -1373
-1354 -723 -723 -1324 -1326 -1335 -1340 -64 -79 -115 -191 -138 -303 -10 -49
-12 -466 -12 -1947 l1 -1885 22 -78 c24 -85 57 -156 105 -227 48 -70 2662
-2679 2729 -2723 54 -35 170 -87 233 -104 17 -4 890 -9 1940 -10 1864 -2 1912
-2 1984 18 87 22 200 76 256 122 73 59 2641 2631 2683 2687 48 65 95 161 118
245 15 55 17 219 18 1940 2 1999 3 1964 -46 2085 -55 139 -51 136 -1432 1515
-877 877 -1341 1334 -1381 1360 -33 22 -85 49 -116 62 -138 56 -26 53 -2074
52 -1824 0 -1893 -1 -1963 -19z m2547 -824 c142 -20 262 -141 305 -306 21 -83
14 -209 -17 -305 -33 -99 -33 -120 -2 -150 22 -23 32 -25 110 -25 48 0 94 4
104 10 10 5 44 61 75 125 186 379 401 624 571 652 29 5 36 1 68 -42 56 -73 97
-204 92 -295 -8 -127 -54 -283 -135 -455 -40 -85 -80 -195 -80 -221 0 -28 35
-66 311 -343 170 -171 318 -312 327 -312 66 -6 95 16 122 89 7 20 23 60 35 87
13 28 48 111 80 185 77 183 96 219 124 238 64 43 161 -2 313 -148 159 -150
370 -360 397 -394 89 -111 110 -238 60 -371 -53 -142 -142 -234 -299 -308 -78
-36 -95 -59 -91 -118 0 -9 28 -44 62 -78 73 -73 79 -74 215 -27 161 56 281 88
416 111 18 3 47 8 63 11 17 3 77 6 135 6 108 0 182 -14 248 -50 31 -16 33 -20
27 -58 -19 -146 -90 -264 -213 -357 -95 -70 -87 -67 -687 -312 -104 -43 -203
-83 -220 -90 -16 -7 -111 -46 -210 -85 -99 -40 -202 -83 -230 -95 -27 -13
-162 -69 -300 -125 -137 -56 -329 -135 -425 -175 -96 -39 -260 -107 -365 -149
-104 -43 -209 -87 -232 -97 -24 -10 -46 -19 -50 -19 -4 0 -25 -9 -47 -19 -23
-10 -126 -53 -231 -96 -214 -86 -234 -101 -229 -168 4 -46 32 -82 72 -92 54
-13 260 -99 362 -149 121 -61 196 -107 277 -173 60 -47 172 -162 173 -176 0
-4 14 -14 31 -21 43 -18 98 -5 127 31 58 70 117 133 130 138 8 3 186 -63 396
-147 210 -83 392 -151 406 -150 14 1 36 13 49 26 22 22 24 33 24 113 0 91 -10
125 -41 142 -10 5 -81 33 -158 61 -76 28 -148 55 -159 60 -29 14 -107 41 -132
47 -13 3 -23 8 -23 12 0 3 100 44 223 89 241 91 236 89 667 261 768 307 865
344 897 337 67 -15 108 -93 121 -230 9 -101 9 -603 0 -673 -20 -161 -150 -289
-332 -327 -83 -18 -166 -11 -268 20 -127 39 -148 41 -178 9 -21 -23 -24 -36
-26 -108 -1 -52 4 -90 12 -104 7 -12 76 -52 157 -93 311 -153 528 -325 602
-475 39 -79 39 -90 -3 -123 -137 -108 -329 -134 -522 -71 -58 18 -232 89 -345
139 -75 33 -112 43 -137 37 -21 -6 -548 -520 -621 -607 -54 -63 -27 -111 90
-160 43 -18 96 -40 118 -50 22 -10 74 -33 115 -50 41 -17 99 -42 128 -56 29
-13 57 -24 62 -24 19 0 69 -52 75 -79 3 -16 2 -47 -4 -68 -23 -83 -69 -135
-472 -530 -144 -141 -195 -168 -314 -167 -190 2 -346 116 -444 325 -34 70 -54
88 -97 89 -24 0 -43 -13 -92 -61 -82 -81 -81 -72 -14 -274 78 -233 106 -382
106 -555 0 -122 -8 -168 -38 -228 -35 -69 -40 -72 -116 -56 -149 31 -250 101
-347 243 -55 79 -36 36 -290 661 -113 278 -224 550 -248 605 -49 112 -79 185
-290 700 -81 198 -155 378 -165 400 -18 42 -42 101 -195 475 -138 335 -134
326 -161 339 -60 27 -126 2 -145 -56 -24 -76 -120 -305 -160 -385 -72 -144
-147 -248 -257 -357 -114 -112 -131 -145 -106 -198 8 -15 30 -39 49 -52 39
-26 125 -112 125 -123 0 -4 -67 -176 -149 -381 -98 -246 -148 -384 -146 -403
1 -15 15 -38 29 -51 24 -21 35 -22 120 -20 106 3 123 11 145 74 7 21 24 65 36
98 13 33 44 116 69 183 62 168 61 166 79 107 19 -64 91 -252 223 -582 57 -144
104 -265 104 -268 0 -3 8 -25 19 -48 10 -23 44 -109 76 -191 31 -83 97 -250
146 -373 49 -122 91 -237 94 -255 7 -42 -22 -91 -67 -114 -62 -32 -164 -41
-488 -42 -345 -2 -403 5 -483 51 -95 56 -164 159 -191 288 -21 100 -14 164 34
312 27 86 28 93 14 123 -11 23 -25 35 -47 40 -50 11 -167 7 -183 -7 -8 -6 -53
-87 -99 -179 -91 -178 -164 -296 -250 -400 -84 -103 -194 -190 -266 -210 -27
-8 -32 -5 -68 43 -21 29 -51 84 -66 122 -26 62 -29 82 -29 180 0 139 11 182
119 441 47 112 87 215 89 228 2 13 -2 33 -10 44 -8 11 -149 155 -314 320 -211
211 -307 301 -327 305 -49 9 -76 -15 -113 -100 -18 -43 -44 -100 -56 -128 -12
-27 -46 -106 -74 -175 -29 -69 -61 -139 -71 -156 -57 -94 -166 -64 -329 92
-306 294 -431 425 -467 490 -34 62 -43 160 -22 252 30 134 134 257 286 335 97
50 113 66 113 115 0 22 -14 43 -61 91 -79 80 -75 79 -244 21 -120 -41 -275
-84 -349 -96 -21 -3 -48 -8 -60 -10 -43 -10 -253 -13 -298 -4 -59 11 -145 48
-151 63 -9 25 26 154 56 211 78 146 199 235 457 336 50 19 265 109 315 130 52
23 218 92 290 120 44 17 94 38 110 45 17 7 125 51 240 98 116 47 392 161 615
252 690 284 721 296 870 357 149 61 161 66 220 91 19 8 81 34 137 57 56 23
108 48 114 56 6 8 14 33 16 57 7 62 -19 87 -137 130 -324 120 -513 229 -670
388 -39 39 -70 73 -70 77 0 17 -58 40 -95 37 -33 -2 -45 -9 -75 -46 -19 -23
-57 -64 -83 -91 l-48 -47 -47 19 c-541 216 -712 283 -739 287 -25 4 -37 0 -57
-20 -27 -27 -28 -31 -28 -132 1 -90 1 -90 21 -111 10 -11 126 -60 259 -109
141 -52 236 -92 229 -97 -11 -6 -143 -56 -402 -153 -33 -12 -168 -66 -300
-119 -132 -54 -244 -98 -250 -100 -5 -2 -23 -8 -40 -15 -166 -66 -317 -125
-325 -127 -3 0 -14 -4 -25 -9 -422 -170 -431 -173 -476 -142 -29 21 -52 62
-70 122 -11 39 -14 131 -14 430 l0 380 27 57 c89 191 319 279 555 212 158 -44
149 -43 182 -23 17 10 32 24 32 31 6 55 4 158 -4 180 -7 23 -34 40 -145 96
-338 170 -545 335 -619 494 -13 29 -23 61 -21 72 4 28 112 98 186 122 65 20
194 26 273 12 70 -13 147 -40 352 -126 195 -82 217 -88 251 -61 14 11 158 152
320 315 286 286 296 297 296 334 0 32 -6 43 -33 64 -19 15 -37 26 -41 26 -8 0
-417 176 -466 200 -68 34 -86 76 -66 145 21 69 71 131 236 295 383 380 395
389 521 398 146 10 295 -62 393 -191 16 -20 49 -76 75 -124 48 -90 66 -105
118 -95 29 5 131 106 139 138 4 15 -12 77 -44 176 -100 302 -130 493 -107 690
5 50 37 132 54 142 20 13 126 -14 196 -49 78 -39 144 -95 200 -169 48 -65 74
-117 161 -326 40 -96 114 -274 164 -395 50 -121 132 -321 182 -445 49 -124 97
-241 105 -260 25 -57 31 -72 54 -130 12 -30 27 -68 34 -85 7 -16 64 -154 126
-305 61 -151 140 -342 174 -425 34 -82 122 -296 195 -475 73 -179 143 -335
155 -348 24 -26 87 -33 122 -13 14 7 40 59 79 158 125 323 219 481 380 641
110 109 126 139 104 193 -7 15 -29 40 -51 54 -21 15 -59 49 -83 75 l-45 49 20
48 c11 26 24 57 29 68 11 24 213 536 245 620 21 54 22 64 10 93 -19 43 -47 52
-156 49 -106 -4 -110 -6 -148 -115 -13 -37 -29 -80 -36 -97 -8 -16 -37 -94
-66 -173 -29 -78 -55 -139 -59 -135 -4 5 -39 96 -79 203 -64 172 -278 721
-301 775 -52 116 -300 760 -302 782 -1 15 6 40 16 55 34 52 94 76 211 85 44 3
81 6 82 7 6 4 577 -3 612 -8z"/>
<path d="M4045 8661 c-47 -21 -1888 -1862 -1912 -1911 -15 -31 -16 -98 -17
-663 -1 -346 3 -631 7 -634 6 -4 74 21 222 82 17 7 51 21 77 31 l48 19 0 512
0 511 859 859 859 859 112 -1 c61 0 113 2 116 6 2 4 -25 76 -60 160 -34 85
-65 161 -69 170 -8 23 -192 23 -242 0z"/>
<path d="M5440 8668 c0 -5 13 -42 29 -81 16 -40 46 -115 67 -167 l38 -95 515
0 c473 0 516 -1 536 -17 12 -10 401 -396 863 -858 l841 -842 3 -123 3 -123
167 67 c92 36 170 70 174 74 9 9 9 172 0 223 -7 35 -96 127 -944 977 -515 516
-950 946 -967 955 -27 15 -91 17 -677 18 -388 1 -648 -3 -648 -8z"/>
<path d="M3934 7918 c-44 -35 -104 -100 -114 -125 -12 -29 -8 -45 28 -123 16
-36 40 -87 52 -115 13 -27 45 -97 72 -154 26 -58 47 -108 46 -113 -2 -6 -187
74 -428 184 -29 14 -55 17 -91 9 -4 0 -143 -137 -309 -303 -262 -262 -303
-308 -307 -338 -6 -42 23 -84 64 -95 15 -3 45 -15 68 -25 22 -10 96 -41 165
-70 69 -28 139 -58 155 -65 128 -57 1480 -616 1498 -619 46 -7 107 49 107 98
0 9 -21 62 -46 118 -92 204 -164 413 -181 523 -3 17 -8 48 -12 70 -4 22 -6
101 -5 175 l3 135 -32 33 -32 33 -95 -7 c-111 -9 -141 -7 -154 6 -5 5 -80 175
-167 377 -87 202 -168 378 -180 391 -12 12 -33 22 -49 22 -15 0 -40 -10 -56
-22z"/>
<path d="M6793 7907 c-15 -6 -35 -41 -64 -111 -23 -55 -50 -119 -60 -141 -9
-22 -40 -96 -69 -165 -28 -69 -58 -138 -65 -155 -7 -16 -57 -136 -110 -265
-99 -239 -278 -669 -294 -705 -5 -11 -26 -60 -46 -110 -20 -49 -44 -106 -52
-125 -8 -19 -19 -44 -24 -55 -29 -68 -39 -100 -39 -122 0 -33 60 -93 93 -93
14 0 79 24 145 54 197 89 387 155 492 171 120 18 170 21 273 18 116 -3 116 -3
148 25 35 31 35 32 26 175 -3 43 -3 86 0 96 3 13 116 66 385 182 233 100 385
171 394 183 32 46 13 90 -80 177 -65 62 -68 61 -336 -64 -167 -77 -213 -98
-220 -95 -4 2 4 28 19 58 84 174 181 404 181 429 0 24 -48 76 -309 337 -325
326 -328 328 -388 301z"/>
<path d="M5368 5804 c-3 -3 -64 -29 -134 -59 l-129 -53 -62 -148 c-68 -163
-67 -150 -15 -264 11 -25 34 -76 49 -114 l29 -69 144 -59 c159 -65 151 -65
255 -19 22 10 73 31 113 47 83 33 74 20 156 220 l46 111 -63 148 -63 149 -140
57 c-131 55 -173 66 -186 53z"/>
<path d="M8503 5276 l-173 -70 0 -512 0 -511 -857 -858 -858 -858 -130 -2
c-76 0 -130 -5 -130 -10 0 -9 75 -198 122 -307 l16 -38 121 3 c84 2 130 8 149
18 43 23 1886 1869 1904 1908 15 30 16 104 16 667 0 349 -2 636 -4 637 -2 2
-82 -28 -176 -67z"/>
<path d="M4720 4933 c-8 -3 -71 -30 -140 -61 -213 -93 -396 -153 -511 -167
-24 -3 -55 -7 -69 -10 -27 -6 -179 -6 -245 -1 -34 3 -45 -2 -73 -30 l-34 -34
7 -88 c15 -170 28 -153 -192 -247 -104 -43 -210 -89 -238 -101 -27 -13 -79
-35 -115 -50 -36 -14 -85 -35 -110 -46 -25 -11 -59 -26 -76 -34 -39 -17 -60
-42 -67 -79 -4 -26 3 -38 66 -102 81 -84 101 -89 189 -48 157 74 403 183 406
180 2 -2 -17 -47 -42 -100 -25 -54 -46 -99 -46 -100 0 -2 -16 -39 -36 -82 -71
-152 -84 -186 -84 -212 0 -20 62 -88 313 -338 271 -272 316 -313 342 -313 47
1 68 27 120 150 26 63 54 129 61 145 7 17 25 59 39 95 15 36 33 79 40 95 7 17
92 219 188 450 96 231 230 551 297 712 67 161 123 300 125 310 8 52 -68 123
-115 106z"/>
<path d="M5930 4823 c-20 -8 -45 -34 -58 -59 -13 -25 -6 -54 33 -139 85 -185
152 -377 191 -550 4 -16 8 -105 9 -196 1 -91 7 -174 13 -185 16 -30 63 -52
102 -48 87 9 167 11 185 4 13 -5 34 -40 59 -101 22 -52 50 -116 62 -144 12
-27 37 -84 54 -125 17 -41 37 -88 45 -105 7 -16 22 -50 32 -75 87 -201 98
-222 122 -234 44 -22 72 -10 144 63 48 49 67 76 67 95 0 22 -69 183 -180 422
-17 36 -30 67 -28 68 2 2 107 -44 233 -102 132 -60 243 -104 259 -104 25 1 76
48 339 310 343 344 344 344 285 402 -16 17 -35 30 -42 30 -7 0 -26 6 -42 14
-93 46 -1835 766 -1851 765 -10 0 -25 -3 -33 -6z"/>
<path d="M2415 4415 c-48 -23 -113 -50 -207 -86 -69 -27 -88 -38 -89 -54 -5
-88 0 -197 10 -226 15 -46 1869 -1901 1921 -1923 29 -11 142 -14 658 -14 342
0 622 4 622 8 0 4 -15 46 -34 92 -19 45 -49 121 -68 168 l-33 85 -504 0 -503
0 -859 859 -859 859 0 123 c0 134 0 134 -55 109z"/>
</g>
</svg>
